<?xml version="1.0" encoding="UTF-8"?>
<svg id="Layer_2" xmlns="http://www.w3.org/2000/svg" viewBox="0 0 2697.88 2542.64">
  <defs>
    <style>
      .cls-1 {
        fill: #000072;
      }

      .cls-2 {
        fill: #714b87;
      }

      .cls-3 {
        fill: #f27e80;
      }

      .cls-4 {
        fill: #fff;
      }

      .cls-5 {
        fill: #fa508e;
      }

      .cls-6 {
        fill: #1d1e2e;
      }

      .cls-7 {
        fill: #b695c6;
      }

      .cls-8 {
        fill: #b52cab;
      }

      .cls-9 {
        opacity: .5;
      }
    </style>
  </defs>
  <g id="CatCloud">
    <g>
      <g>
        <circle class="cls-4" cx="570.68" cy="1769.23" r="476.9"/>
        <path class="cls-7" d="M1045.14,1721.03c13.62,134.6-29.83,274.07-131.06,379.12-182.77,189.66-484.66,195.25-674.32,12.48-105.04-101.22-153.61-238.98-145.01-373.98,10.97,108.4,58.95,213.64,143.55,295.16,189.65,182.76,491.56,177.18,674.32-12.48,81.54-84.62,125.58-191.56,132.52-300.31Z"/>
      </g>
      <g>
        <circle class="cls-4" cx="476.9" cy="1533.88" r="476.9"/>
        <path class="cls-7" d="M490.96,2010.57c-115.72,3.42-232.67-35.05-326.16-116.09-210.94-182.84-220.01-509.04-19.55-703.31,88.85-86.12,203.5-131.02,319.26-134.03,3.89-.1,4.49,5.55.66,6.29-94.62,18.21-184.63,65.18-255.9,140.52-181.01,191.32-172.65,493.16,18.68,674.18,75.35,71.29,167.83,113.2,263.32,126.13,3.86.52,3.58,6.2-.31,6.31Z"/>
      </g>
      <g>
        <circle class="cls-4" cx="1513.74" cy="1799.81" r="476.9"/>
        <path class="cls-7" d="M1988.2,1751.6c13.62,134.6-29.83,274.07-131.06,379.12-182.77,189.66-484.66,195.25-674.32,12.48-105.04-101.22-153.61-238.98-145.01-373.98,10.97,108.4,58.95,213.64,143.55,295.16,189.65,182.76,491.56,177.18,674.32-12.48,81.54-84.62,125.58-191.56,132.52-300.31Z"/>
      </g>
      <g>
        <circle class="cls-4" cx="1024.66" cy="2065.73" r="476.9"/>
        <path class="cls-7" d="M1499.13,2017.53c13.62,134.6-29.83,274.07-131.06,379.12-182.77,189.66-484.66,195.25-674.32,12.48-105.04-101.22-153.61-238.98-145.01-373.98,10.97,108.4,58.95,213.64,143.55,295.16,189.65,182.76,491.56,177.18,674.32-12.48,81.54-84.62,125.58-191.56,132.52-300.31Z"/>
      </g>
      <g>
        <circle class="cls-4" cx="1086.44" cy="1417.92" r="476.9"/>
        <path class="cls-7" d="M1560.91,1369.72c13.62,134.6-29.83,274.07-131.06,379.12-182.77,189.66-484.66,195.25-674.32,12.48-105.04-101.22-153.61-238.98-145.01-373.98,10.97,108.4,58.95,213.64,143.55,295.16,189.65,182.76,491.56,177.18,674.32-12.48,81.54-84.62,125.58-191.56,132.52-300.31Z"/>
      </g>
      <g>
        <path class="cls-1" d="M2017.3,1221.19c-.17.33-.37.62-.54.95l.7-1.16c-.08.08-.12.12-.17.21Z"/>
        <path class="cls-1" d="M2016.76,1222.14l-20.33,32.63c7.01-10.56,13.86-21.37,20.33-32.63Z"/>
        <path class="cls-1" d="M2017.33,1210.7c-.12.14-.25.27-.33.36-.17.23-.33.45-.49.68l.82-1.04Z"/>
        <path class="cls-1" d="M1996.79,1235.9c6.81-7.8,13.4-15.82,19.72-24.16l-19.72,24.16Z"/>
        <path class="cls-1" d="M644.04,1235.9l-19.67-24.03c6.27,8.3,12.83,16.27,19.67,24.03Z"/>
        <path class="cls-1" d="M2031.99,1201.55c-.28.32-.55.67-.83.99l.99-1.11s-.12.08-.16.12Z"/>
        <path class="cls-1" d="M2031.16,1202.54l-20.24,22.62c.08-.04.12-.12.2-.16,6.93-7.25,13.63-14.73,20.04-22.46Z"/>
        <path class="cls-4" d="M1996.41,1244.28c6.84-7.86,13.51-15.97,19.92-24.34l-19.92,24.34Z"/>
        <path class="cls-4" d="M645.36,1244.28l-19.84-24.3c6.33,8.37,13,16.44,19.84,24.3Z"/>
        <path class="cls-4" d="M459.52,1078.36c3.82,33.26,71.7,1.74,86.49-5.52,1.19-.59,2.46.64,2.12,2.08-1.36,5.73-5.01,18.65-14.27,39.29-11.47,25.49-20.81,45.24-15.63,58.62,5.56,14.19,28.63,19.67,57.39,16.44,16.1-1.83,33.35,12.23,48.72,29.22l.04.04.13.13,1.02,1.32c-.25-.38-.55-.72-.81-1.1,7.52,8.33,14.57,17.37,20.81,25.57,25.83,29.52,54.97,55.69,86.74,78.8,40.99,28.8,86.19,51.53,133.85,69.32v-.34s65.37,24.13,162.05,46.26c0,0,86.4,18.48,165.37,28.67,0,0,60.45,7.18,126.88,7.18s127.86-7.18,127.86-7.18c78.92-10.19,165.37-28.67,165.37-28.67,96.64-22.13,162.05-46.26,162.05-46.26v.34c47.66-17.8,92.86-40.52,133.85-69.32,31.73-23.11,60.87-49.27,86.7-78.8,6.33-8.28,13.42-17.37,21.03-25.78-.3.42-.64.85-.93,1.27l1.15-1.44s-.13.08-.17.13c15.42-17.03,32.71-31.18,48.85-29.35,28.76,3.23,51.82-2.25,57.39-16.44,5.22-13.38-4.16-33.13-15.59-58.62-9.3-20.64-12.96-33.56-14.32-39.29-.3-1.44.93-2.68,2.12-2.08,14.78,7.26,82.66,38.78,86.49,5.52,2.17-18.44-27.74-74.17-38.15-131.26-30.2-165.45-38.95-198.12-38.95-198.12-.21-1.1-29.48-119.7-73.23-207.04,43.71-116.47,72.34-456.17-.81-527.11-58.7-56.96-279.46,62.57-362.29,146.21-125.27-52.33-319.56-60.19-347.94-60.15-9.77,0-39.16.89-78.63,4.25-75.27,6.37-187.16,21.58-269.27,55.9C890.16,77.41,669.4-42.12,610.65,14.84c-73.15,70.94-44.52,410.63-.81,527.11-27.65,55.18-49.53,122.85-61.89,165.45-7.22,24.85-11.26,41.16-11.34,41.59,0,0-8.71,32.67-38.91,198.12-10.41,57.09-40.31,112.82-38.19,131.26Z"/>
        <path class="cls-8" d="M593.84,486.62c-19.07-82.58-31.65-204.57-27.06-305.59,4.21,105.39,21.88,214.43,43.07,270.97-5.56,11.13-10.92,22.77-16.01,34.62Z"/>
        <path class="cls-7" d="M547.96,707.4c25.02,3.1,50.51,4.67,76.33,4.67,337.61,0,612.02-270.71,617.97-606.93-75.27,6.37-187.16,21.58-269.27,55.9C890.16,77.41,669.4-42.12,610.65,14.84c-73.15,70.94-44.52,410.63-.81,527.11-27.65,55.18-49.53,122.85-61.89,165.45Z"/>
        <path class="cls-1" d="M2016.19,1220.09l-19.77,24.17c6.83-7.8,13.44-15.82,19.77-24.17Z"/>
        <path class="cls-5" d="M1867.77,310.96c57.93,58.8,94.35,141,99.53,131.41.5-.92,1.01-2.02,1.51-3.3,11.05-26.88,29.45-133.47,29.4-228.47-.05-15.32-.46-28.85-1.28-40.78-2.2-32.2-7.02-52.84-12.93-66.05-7.34-16.15-23.85-21.1-38.48-15.69-38.9,14.45-149.39,83.25-185.4,127.37-6.42,7.84,49.67,36.69,107.65,95.5Z"/>
        <path class="cls-2" d="M1867.77,310.96c57.93,58.8,94.35,141,99.53,131.41.5-.92,1.01-2.02,1.51-3.3-12.89-49.86-48.44-118.75-75.68-168.56-37.24-68.02,14.13-122.05,58.66-138.2,15.27-5.55,33.39,18.26,45.13,37.52-2.2-32.2-7.02-52.84-12.93-66.05-7.34-16.15-23.85-21.1-38.48-15.69-38.9,14.45-149.39,83.25-185.4,127.37-6.42,7.84,49.67,36.69,107.65,95.5Z"/>
        <path class="cls-5" d="M778.57,310.96c-57.93,58.8-94.35,141-99.53,131.41-.5-.92-1.01-2.02-1.51-3.3-11.05-26.88-29.45-133.47-29.4-228.47.05-15.32.46-28.85,1.28-40.78,2.2-32.2,7.02-52.84,12.93-66.05,7.34-16.15,23.85-21.1,38.48-15.69,38.9,14.45,149.39,83.25,185.4,127.37,6.42,7.84-49.67,36.69-107.65,95.5Z"/>
        <path class="cls-2" d="M778.57,310.96c-57.93,58.8-94.35,141-99.53,131.41-.5-.92-1.01-2.02-1.51-3.3,12.89-49.86,48.44-118.75,75.68-168.56,37.24-68.02-14.13-122.05-58.66-138.2-15.27-5.55-33.39,18.26-45.13,37.52,2.2-32.2,7.02-52.84,12.93-66.05,7.34-16.15,23.85-21.1,38.48-15.69,38.9,14.45,149.39,83.25,185.4,127.37,6.42,7.84-49.67,36.69-107.65,95.5Z"/>
        <ellipse class="cls-3" cx="879.28" cy="1121.38" rx="80.09" ry="38.45"/>
        <ellipse class="cls-3" cx="1762.49" cy="1121.38" rx="80.09" ry="38.45"/>
        <path class="cls-4" d="M1440.95,1061.64s-21.02,55.15-70.24,42.42c-56.02-14.49-49.29-81.3-49.29-81.3"/>
        <path class="cls-4" d="M1199.82,1061.64s21.02,55.15,70.24,42.42c56.02-14.49,49.29-81.3,49.29-81.3"/>
        <path class="cls-6" d="M1448.89,1064.67l-.54,1.83-.53,1.63c-.36,1.08-.73,2.14-1.14,3.18-.81,2.09-1.71,4.13-2.66,6.16-1.94,4.03-4.17,7.96-6.76,11.72-5.17,7.51-11.76,14.53-20.05,19.95-8.22,5.48-18.33,8.92-28.49,9.63-5.07.3-10.12.03-14.98-.79-1.24-.15-2.4-.47-3.6-.71-1.17-.29-2.41-.49-3.53-.86l-3.42-1.03-1.71-.52-1.69-.64-3.37-1.3c-1.12-.44-2.21-1.02-3.31-1.54-1.09-.55-2.21-1.01-3.26-1.65l-3.18-1.85c-4.17-2.59-8.14-5.59-11.65-9.04-1.83-1.65-3.4-3.55-5.04-5.37-1.49-1.93-3.05-3.81-4.35-5.84-1.39-1.99-2.54-4.09-3.74-6.16-1.07-2.12-2.18-4.22-3.05-6.4-3.72-8.64-5.73-17.61-6.65-26.47-.42-4.44-.66-8.85-.5-13.26.05-2.2.18-4.4.37-6.6.11-1.1.23-2.21.37-3.32l.24-1.68.31-1.85c.77-4.6,5.12-7.7,9.72-6.94,3.7.62,6.44,3.56,6.96,7.08l.23,1.56c.04.24.06.76.09,1.17l.09,1.34c.07.91.15,1.82.24,2.74.2,1.84.38,3.68.66,5.51.56,3.66,1.17,7.29,2.06,10.82,1.73,7.06,4.1,13.8,7.31,19.78.77,1.52,1.68,2.92,2.52,4.36.95,1.35,1.83,2.75,2.87,4,.94,1.33,2.07,2.48,3.1,3.7,1.15,1.1,2.22,2.28,3.44,3.28,4.7,4.21,10.28,7.28,16.42,9.49l1.14.43,1.2.34,2.38.7c.8.27,1.57.35,2.36.55.78.15,1.56.41,2.34.49l2.32.35c.78.15,1.53.12,2.3.2,1.54.17,3.03.09,4.54.12,5.95-.33,11.73-1.76,17.26-4.81,5.53-2.98,10.83-7.27,15.64-12.44,2.41-2.58,4.7-5.36,6.88-8.28,1.1-1.45,2.17-2.94,3.16-4.47.51-.76,1.02-1.51,1.5-2.27l.71-1.13c.22-.34.48-.79.63-.96l1.31-1.61c2.93-3.59,8.22-4.13,11.81-1.2,2.69,2.2,3.66,5.72,2.75,8.86Z"/>
        <path class="cls-6" d="M1207.76,1058.62c.14.17.41.63.63.96l.71,1.13c.48.76.99,1.51,1.5,2.27,1,1.52,2.07,3.01,3.16,4.47,2.18,2.92,4.48,5.7,6.88,8.28,4.81,5.17,10.11,9.46,15.64,12.44,5.52,3.05,11.31,4.49,17.26,4.81,1.51-.03,3,.05,4.54-.12.77-.08,1.52-.05,2.3-.2l2.32-.35c.77-.08,1.56-.34,2.34-.49.79-.19,1.56-.27,2.36-.55l2.38-.7,1.19-.34,1.14-.43c6.14-2.21,11.72-5.27,16.42-9.49,1.23-.99,2.29-2.18,3.44-3.28,1.03-1.22,2.15-2.37,3.1-3.7,1.04-1.24,1.92-2.64,2.87-4,.84-1.44,1.75-2.84,2.52-4.36,3.21-5.97,5.58-12.71,7.31-19.78.89-3.53,1.5-7.16,2.06-10.82.29-1.83.46-3.67.66-5.51.09-.92.18-1.83.24-2.74l.09-1.34c.03-.41.05-.93.09-1.17l.23-1.54c.68-4.61,4.97-7.8,9.58-7.12,3.71.55,6.5,3.45,7.09,6.96l.31,1.85.24,1.68c.14,1.11.26,2.21.37,3.32.2,2.2.32,4.4.37,6.6.15,4.41-.08,8.82-.51,13.26-.92,8.86-2.93,17.83-6.65,26.47-.87,2.18-1.98,4.28-3.05,6.4-1.2,2.07-2.35,4.17-3.74,6.16-1.3,2.03-2.86,3.92-4.35,5.84-1.64,1.82-3.2,3.72-5.04,5.37-3.51,3.45-7.48,6.45-11.65,9.04l-3.18,1.85c-1.05.64-2.17,1.1-3.26,1.65-1.1.51-2.19,1.09-3.31,1.54l-3.37,1.3-1.69.64-1.71.52-3.42,1.03c-1.12.37-2.36.57-3.53.86-1.2.24-2.36.56-3.6.71-4.86.81-9.91,1.08-14.98.79-10.16-.71-20.27-4.15-28.49-9.63-8.3-5.42-14.89-12.44-20.05-19.95-2.59-3.77-4.83-7.69-6.76-11.72-.95-2.03-1.84-4.07-2.66-6.16-.41-1.04-.78-2.1-1.14-3.18l-.53-1.63-.54-1.83c-1.3-4.45,1.25-9.11,5.71-10.41,3.34-.97,6.79.22,8.86,2.75l1.31,1.61Z"/>
        <path class="cls-6" d="M1252.9,987.74c0,15.8,20.62,29.76,39.54,39.25,19.79,9.92,41.97,9.92,61.76,0,18.92-9.49,39.54-23.45,39.54-39.25,0-47.67-140.84-47.67-140.84,0Z"/>
        <g class="cls-9">
          <path class="cls-4" d="M1295.4,978.39c0,4.56,8.17,8.58,15.68,11.32,7.85,2.86,16.64,2.86,24.49,0,7.5-2.73,15.68-6.76,15.68-11.32,0-13.74-55.84-13.74-55.84,0Z"/>
        </g>
        <path class="cls-6" d="M1148.05,918.49c-30.63,84.18-103.37,124.03-162.47,89.02-59.1-35.01-82.17-131.63-51.54-215.81s103.37-124.03,162.47-89.02c59.1,35.01,82.17,131.63,51.54,215.81Z"/>
        <path class="cls-4" d="M1117.93,833.62c-4.42,31.23-22.09,53.57-39.48,49.9-17.39-3.67-27.9-31.95-23.49-63.18,4.42-31.23,22.09-53.57,39.48-49.9,17.39,3.67,27.9,31.95,23.49,63.18Z"/>
        <path class="cls-4" d="M994.33,896.18c-2.96,15.5-12.34,26.33-20.95,24.18s-13.18-16.45-10.22-31.95c2.96-15.5,12.34-26.33,20.95-24.18,8.61,2.14,13.18,16.45,10.22,31.95Z"/>
        <path class="cls-6" d="M1512.47,918.49c30.63,84.18,103.37,124.03,162.47,89.02,59.1-35.01,82.17-131.63,51.54-215.81-30.63-84.18-103.37-124.03-162.47-89.02-59.1,35.01-82.17,131.63-51.54,215.81Z"/>
        <path class="cls-4" d="M1542.6,833.62c4.42,31.23,22.09,53.57,39.48,49.9,17.39-3.67,27.9-31.95,23.49-63.18-4.42-31.23-22.09-53.57-39.48-49.9-17.39,3.67-27.9,31.95-23.49,63.18Z"/>
        <path class="cls-4" d="M1666.2,896.18c2.96,15.5,12.34,26.33,20.95,24.18s13.18-16.45,10.22-31.95-12.34-26.33-20.95-24.18c-8.61,2.14-13.18,16.45-10.22,31.95Z"/>
      </g>
      <g>
        <circle class="cls-4" cx="1863.78" cy="1445.57" r="476.9"/>
        <path class="cls-7" d="M2338.25,1397.37c13.62,134.6-29.83,274.07-131.06,379.12-182.77,189.66-484.66,195.25-674.32,12.48-105.04-101.22-153.61-238.98-145.01-373.98,10.97,108.4,58.95,213.64,143.55,295.16,189.65,182.76,491.56,177.18,674.32-12.48,81.54-84.62,125.58-191.56,132.52-300.31Z"/>
      </g>
      <g>
        <circle class="cls-4" cx="2040.35" cy="1900.11" r="476.9"/>
        <path class="cls-7" d="M2514.81,1851.9c13.62,134.6-29.83,274.07-131.06,379.12-182.77,189.66-484.66,195.25-674.32,12.48-105.04-101.22-153.61-238.98-145.01-373.98,10.97,108.4,58.95,213.64,143.55,295.16,189.65,182.76,491.56,177.18,674.32-12.48,81.54-84.62,125.58-191.56,132.52-300.31Z"/>
      </g>
      <g>
        <circle class="cls-4" cx="2220.88" cy="1481.46" r="476.9"/>
        <path class="cls-7" d="M2044.6,1038.33c116.23-46.19,249.92-46.66,371.45,7.98,256.74,115.43,358.4,429.05,218.13,673.1-67.56,117.55-178.53,196.08-301.94,225.77-.53.13-.77-.63-.27-.84,98.7-41.81,183.96-116.96,237.15-219.56,121.22-233.82,29.95-521.65-203.88-642.88-102.61-53.2-215.61-65.47-320.37-42.74-.53.12-.77-.64-.26-.84Z"/>
      </g>
      <g>
        <circle class="cls-4" cx="1762.49" cy="1559.84" r="476.9"/>
        <path class="cls-7" d="M2236.96,1511.63c13.62,134.6-29.83,274.07-131.06,379.12-182.77,189.66-484.66,195.25-674.32,12.48-105.04-101.22-153.61-238.98-145.01-373.98,10.97,108.4,58.95,213.64,143.55,295.16,189.65,182.76,491.56,177.18,674.32-12.48,81.54-84.62,125.58-191.56,132.52-300.31Z"/>
      </g>
    </g>
  </g>
</svg>